# xmcd
# 
# Track frame offsets:
#     150
#     28823
#     43410
#     70940
#     92485
#     115846
#     139370
#     180233
#     215772
#     241786
#     275649
# 
# Disc length: 4136
# 
# Revision: 4
# Processed by: cddbd v1.5.2PL0 Copyright (c) Steve Scherf et al.
# Submitted via: fre:ac v1.1beta2
# 
DISCID=a310260b
DTITLE=VNV Nation und Das Film Orchester Babelsberg - Resonance - Music For Orchestra Vol. 1 [ANA.CD.6]
DYEAR=2015
DGENRE=Classical
TTITLE0=Nova
TTITLE1=Legion
TTITLE2=Solitary
TTITLE3=Further
TTITLE4=Perpetual
TTITLE5=Illusion
TTITLE6=Nova (Largo)
TTITLE7=Sentinel
TTITLE8=Standing
TTITLE9=Beloved
TTITLE10=Resolution
EXTD=YEAR: 2015
EXTT0=
EXTT1=
EXTT2=
EXTT3=
EXTT4=
EXTT5=
EXTT6=
EXTT7=
EXTT8=
EXTT9=
EXTT10=
PLAYORDER=
